<svg width="258" height="119" viewBox="0 0 258 119" fill="none" xmlns="http://www.w3.org/2000/svg">
<g clip-path="url(#clip0_2060_4365)">
<path d="M44.8468 29.957C44.8217 29.6719 44.8718 29.3851 44.9921 29.1254C45.1124 28.8657 45.2987 28.642 45.5324 28.4767C45.7661 28.3115 46.039 28.2104 46.324 28.1835C46.609 28.1567 46.896 28.205 47.1565 28.3237L53.7731 31.3407L60.4664 28.4939C60.7298 28.3821 61.0179 28.3412 61.302 28.3754C61.5861 28.4097 61.8562 28.5178 62.0855 28.6889C62.3148 28.8601 62.4952 29.0884 62.6088 29.3511C62.7223 29.6137 62.7651 29.9016 62.7327 30.1859L61.9075 37.4115L66.684 42.8958C66.8721 43.1118 67.0003 43.3733 67.0558 43.6542C67.1112 43.9352 67.092 44.2258 67 44.497C66.9081 44.7682 66.7465 45.0105 66.5316 45.1998C66.3167 45.3891 66.0559 45.5186 65.7752 45.5756L58.6473 47.0231L54.907 53.261C54.7598 53.5066 54.5507 53.7093 54.3006 53.8489C54.0505 53.9885 53.7682 54.06 53.4819 54.0563C53.1955 54.0526 52.9151 53.9739 52.6687 53.828C52.4223 53.6821 52.2185 53.474 52.0776 53.2247L48.4987 46.8935L41.412 45.2644C41.1328 45.2003 40.8754 45.0642 40.6654 44.8695C40.4553 44.6749 40.3 44.4286 40.215 44.1552C40.1299 43.8817 40.118 43.5908 40.1805 43.3113C40.2431 43.0319 40.3778 42.7737 40.5713 42.5626L45.4862 37.2008L44.8468 29.957Z" fill="#E9BB58"/>
</g>
<g clip-path="url(#clip1_2060_4365)">
<path d="M196.4 30.828C196.666 30.7237 196.956 30.6912 197.239 30.7336C197.522 30.7761 197.789 30.892 198.013 31.0698C198.237 31.2476 198.411 31.4812 198.517 31.7471C198.623 32.013 198.657 32.3021 198.617 32.5854L197.581 39.7833L202.195 45.4065C202.376 45.6278 202.496 45.8928 202.543 46.1751C202.59 46.4574 202.562 46.747 202.462 47.0152C202.363 47.2833 202.194 47.5207 201.974 47.7035C201.754 47.8863 201.49 48.0082 201.208 48.057L194.042 49.2962L190.121 55.4217C189.967 55.663 189.752 55.8595 189.498 55.9917C189.244 56.1239 188.959 56.1871 188.673 56.1751C188.387 56.163 188.109 56.0762 187.867 55.9231C187.625 55.77 187.427 55.5562 187.294 55.3028L183.901 48.8692L176.863 47.0331C176.586 46.9609 176.333 46.8172 176.129 46.6165C175.924 46.4157 175.776 46.1649 175.7 45.889C175.623 45.6132 175.619 45.322 175.69 45.0445C175.761 44.767 175.903 44.5129 176.103 44.3076L181.173 39.0934L180.744 31.8344C180.727 31.5486 180.785 31.2632 180.913 31.007C181.041 30.7507 181.234 30.5324 181.472 30.3739C181.711 30.2154 181.987 30.1222 182.272 30.1037C182.558 30.0851 182.844 30.1419 183.101 30.2682L189.628 33.4777L196.4 30.828Z" fill="#E9BB58"/>
</g>
<g clip-path="url(#clip2_2060_4365)">
<path d="M239.683 78.0864C240.06 78.0304 240.446 78.0743 240.801 78.2137C241.155 78.3531 241.468 78.5831 241.706 78.8808C241.944 79.1785 242.1 79.5334 242.158 79.9102C242.216 80.287 242.175 80.6725 242.038 81.0282L238.549 90.0644L242.864 98.7389C243.033 99.0803 243.11 99.4602 243.087 99.8406C243.064 100.221 242.942 100.589 242.732 100.907C242.523 101.226 242.234 101.484 241.893 101.655C241.553 101.827 241.174 101.907 240.793 101.886L231.12 101.36L224.206 108.145C223.934 108.412 223.596 108.603 223.227 108.699C222.858 108.795 222.47 108.792 222.102 108.692C221.734 108.591 221.399 108.395 221.13 108.124C220.862 107.853 220.669 107.517 220.571 107.148L218.083 97.7853L209.493 93.3052C209.155 93.1289 208.869 92.8669 208.663 92.5454C208.458 92.2239 208.341 91.8542 208.323 91.4732C208.305 91.0921 208.388 90.7131 208.562 90.3739C208.737 90.0347 208.997 89.7473 209.317 89.5403L217.453 84.2811L219.059 74.7295C219.122 74.3533 219.282 74.0003 219.524 73.7056C219.767 73.4109 220.082 73.185 220.439 73.0502C220.796 72.9155 221.182 72.8767 221.558 72.9377C221.935 72.9988 222.288 73.1575 222.584 73.3981L230.102 79.5091L239.683 78.0864Z" fill="#E9BB58"/>
</g>
<path d="M36.8627 87.5389C37.1921 87.7309 37.4654 88.0058 37.6554 88.3364C37.8453 88.667 37.9453 89.0416 37.9453 89.4228C37.9453 89.8041 37.8453 90.1787 37.6554 90.5093C37.4654 90.8398 37.1921 91.1148 36.8627 91.3068L28.4931 96.1824L26.4417 105.651C26.3607 106.023 26.1836 106.368 25.9279 106.651C25.6722 106.933 25.3469 107.144 24.9843 107.262C24.6218 107.38 24.2348 107.4 23.8618 107.322C23.4889 107.243 23.143 107.068 22.8587 106.814L15.6351 100.36L5.99734 101.337C5.61783 101.376 5.23486 101.314 4.88666 101.158C4.53846 101.002 4.23721 100.758 4.01299 100.449C3.78878 100.141 3.64945 99.7788 3.60891 99.3995C3.56836 99.0202 3.62803 98.6369 3.78195 98.2879L7.6894 89.4228L3.78195 80.5578C3.62803 80.2088 3.56836 79.8255 3.60891 79.4462C3.64945 79.0669 3.78878 78.7049 4.01299 78.3963C4.23721 78.0877 4.53846 77.8433 4.88666 77.6875C5.23486 77.5318 5.61783 77.4701 5.99734 77.5086L15.6351 78.4855L22.8569 72.0312C23.1412 71.7769 23.4872 71.6017 23.8604 71.5229C24.2336 71.4442 24.621 71.4647 24.9838 71.5825C25.3466 71.7002 25.6721 71.9111 25.9279 72.194C26.1838 72.4769 26.3609 72.822 26.4417 73.1947L28.4931 82.6633L36.8627 87.5389Z" fill="#E9BB58"/>
<g clip-path="url(#clip3_2060_4365)">
<path d="M119.74 3.94349C119.891 3.68384 120.108 3.46839 120.368 3.31866C120.629 3.16892 120.924 3.09012 121.225 3.09012C121.525 3.09012 121.82 3.16892 122.081 3.31866C122.341 3.46839 122.558 3.68384 122.71 3.94349L126.553 10.5407L134.016 12.1577C134.31 12.2215 134.581 12.3612 134.804 12.5627C135.027 12.7643 135.193 13.0207 135.286 13.3065C135.379 13.5922 135.395 13.8973 135.333 14.1913C135.271 14.4852 135.133 14.7579 134.933 14.982L129.846 20.6759L130.616 28.2727C130.646 28.5719 130.598 28.8738 130.475 29.1482C130.352 29.4227 130.159 29.6601 129.916 29.8369C129.673 30.0136 129.387 30.1234 129.089 30.1554C128.79 30.1874 128.487 30.1403 128.212 30.019L121.225 26.939L114.237 30.019C113.962 30.1403 113.66 30.1874 113.361 30.1554C113.062 30.1234 112.776 30.0136 112.533 29.8369C112.29 29.6601 112.097 29.4227 111.974 29.1482C111.852 28.8738 111.803 28.5719 111.833 28.2727L112.603 20.6759L107.516 14.9834C107.315 14.7593 107.177 14.4865 107.115 14.1924C107.053 13.8982 107.069 13.5929 107.162 13.3069C107.255 13.0209 107.421 12.7643 107.644 12.5627C107.867 12.361 108.139 12.2214 108.433 12.1577L115.896 10.5407L119.74 3.94349Z" fill="#E9BB58"/>
</g>
<defs>
<clipPath id="clip0_2060_4365">
<rect width="31.431" height="31.431" fill="white" transform="translate(31.002 35.1473) rotate(-35.2659)"/>
</clipPath>
<clipPath id="clip1_2060_4365">
<rect width="31.431" height="31.431" fill="white" transform="translate(187.527 19) rotate(38.4086)"/>
</clipPath>
<clipPath id="clip2_2060_4365">
<rect width="41.8655" height="41.8655" fill="white" transform="translate(231.688 60.0877) rotate(51.3311)"/>
</clipPath>
<clipPath id="clip3_2060_4365">
<rect width="33" height="33" fill="white" transform="translate(104.725)"/>
</clipPath>
</defs>
</svg>
